# xmcd
#
# Track frame offsets:
#  150
#  16352
#  28097
#  36450
#  56092
#  68562
#  78905
#  98645
#  109585
#  127854
#  138522
#  157807
#  168460
#  186167
#  204550
#  218465
#  233150
#  244472
#  258482
#  270957
#  282375
#  292797
#  306232
#
# Disc length: 4280 seconds
#
# Revision: 0
# Processed by: cddbd v1.5.1PL0 Copyright (c) Steve Scherf et al.
# Submitted via: Collectorz.com Music Collector 6.9
#
DISCID=3f10b617
DTITLE=Various  Artists - Favourite Irish Songs
DYEAR=1998
DGENRE=Easy Listening
TTITLE0=Irish Tune from Country Derry
TTITLE1=The Meeting of the Waters
TTITLE2=She moved thro' the fair
TTITLE3=Field: Noctune No. 1 in E flat
TTITLE4=Sweet Power of Song
TTITLE5=The Elfin Fairies
TTITLE6=Oh! would I were but that swet linnet
TTITLE7=English Bulls, or: The Irishman in London
TTITLE8=Field: Nocturne No.3 in A flat
TTITLE9=Cockles and Mussels (Molly Malone)
TTITLE10=The last Rose of Summr
TTITLE11=The Star of the Country Down
TTITLE12=Danny Boy
TTITLE13=Molly on the Shore (Irish Reel)
TTITLE14=The Rose of Trale
TTITLE15=Galway Bay
TTITLE16=Macushla
TTITLE17=Mother Machree
TTITLE18=Field: NOctune No.5 in B flat
TTITLE19=The garden where the praties grow
TTITLE20=The harp that once through Tar's halls
TTITLE21=Believe me if all those endearing young charms
TTITLE22=O Mary Dear
EXTD=
EXTT0=
EXTT1=
EXTT2=
EXTT3=
EXTT4=
EXTT5=
EXTT6=
EXTT7=
EXTT8=
EXTT9=
EXTT10=
EXTT11=
EXTT12=
EXTT13=
EXTT14=
EXTT15=
EXTT16=
EXTT17=
EXTT18=
EXTT19=
EXTT20=
EXTT21=
EXTT22=
PLAYORDER=
